<mxfile host="app.diagrams.net" modified="2022-03-13T06:12:23.865Z" agent="5.0 (Macintosh; Intel Mac OS X 10_15_7) AppleWebKit/605.1.15 (KHTML, like Gecko) Version/15.3 Safari/605.1.15" etag="Fn4khWbMdrJPhT1CR0ZU" version="17.1.2" type="github">
  <diagram id="yEty5fpjpeSzh0XMcbvc" name="Page-1">
    <mxGraphModel dx="786" dy="429" grid="1" gridSize="10" guides="1" tooltips="1" connect="1" arrows="1" fold="1" page="1" pageScale="1" pageWidth="827" pageHeight="1169" math="0" shadow="0">
      <root>
        <mxCell id="0" />
        <mxCell id="1" parent="0" />
        <mxCell id="oTGqhndkJchEs5Mvsg-w-1" value="Machine" style="rounded=0;whiteSpace=wrap;html=1;" vertex="1" parent="1">
          <mxGeometry x="310" y="70" width="120" height="60" as="geometry" />
        </mxCell>
        <mxCell id="oTGqhndkJchEs5Mvsg-w-2" value="Root" style="rounded=0;whiteSpace=wrap;html=1;" vertex="1" parent="1">
          <mxGeometry x="310" y="200" width="120" height="60" as="geometry" />
        </mxCell>
        <mxCell id="oTGqhndkJchEs5Mvsg-w-4" value="" style="html=1;shadow=0;dashed=0;align=center;verticalAlign=middle;shape=mxgraph.arrows2.uTurnArrow;dy=11;arrowHead=43;dx2=25;" vertex="1" parent="1">
          <mxGeometry x="190" y="100" width="100" height="100" as="geometry" />
        </mxCell>
        <mxCell id="oTGqhndkJchEs5Mvsg-w-5" value="" style="html=1;shadow=0;dashed=0;align=center;verticalAlign=middle;shape=mxgraph.arrows2.uTurnArrow;dy=11;arrowHead=43;dx2=25;rotation=-180;" vertex="1" parent="1">
          <mxGeometry x="450" y="130" width="100" height="100" as="geometry" />
        </mxCell>
        <mxCell id="oTGqhndkJchEs5Mvsg-w-6" value="input" style="text;html=1;strokeColor=none;fillColor=none;align=center;verticalAlign=middle;whiteSpace=wrap;rounded=0;" vertex="1" parent="1">
          <mxGeometry x="230" y="170" width="60" height="40" as="geometry" />
        </mxCell>
        <mxCell id="oTGqhndkJchEs5Mvsg-w-7" value="output" style="text;html=1;strokeColor=none;fillColor=none;align=center;verticalAlign=middle;whiteSpace=wrap;rounded=0;" vertex="1" parent="1">
          <mxGeometry x="450" y="120" width="60" height="40" as="geometry" />
        </mxCell>
      </root>
    </mxGraphModel>
  </diagram>
</mxfile>
